<?xml version="1.0" encoding="UTF-8"?>
<svg width="1200px" height="630px" viewBox="0 0 1200 630" version="1.1" xmlns="http://www.w3.org/2000/svg" xmlns:xlink="http://www.w3.org/1999/xlink">
    <!-- Generator: Sketch 53.2 (72643) - https://sketchapp.com -->
    <title>Artboard</title>
    <desc>Created with Sketch.</desc>
    <g id="Artboard" stroke="none" stroke-width="1" fill="none" fill-rule="evenodd">
        <g id="FookMei_logo" transform="translate(246.000000, 90.000000)" fill="#000000" fill-rule="nonzero">
            <path d="M362.628224,94.8718565 C362.307185,97.9231708 361.103311,100.804924 359.016561,103.517204 C356.929813,106.229483 354.441803,108.263663 351.552459,109.619802 C348.663115,110.975942 345.693556,111.484487 342.643693,111.145452 C339.593829,110.806417 336.945302,109.280783 334.698034,106.568503 C328.598306,99.4487695 323.542031,93.8547771 319.529052,89.7863577 C315.516073,85.7179386 312.145223,82.6666699 309.416397,80.6324602 C306.687572,78.5982507 304.440338,77.3268888 302.674627,76.8183364 C300.908917,76.3097839 299.22349,76.0555115 297.618299,76.0555115 C294.728955,76.0555115 293.444821,75.1231795 293.76586,73.2584874 C294.086897,71.3937951 297.136716,68.7663139 302.915404,65.3759644 C311.904475,59.9514054 318.405404,56.7306219 322.418381,55.7135171 C326.43136,54.6964123 330.203504,55.0354422 333.734924,56.7306169 C346.897494,63.5113155 355.244363,69.6138529 358.775784,75.0384119 C362.307206,80.4629709 363.59134,87.0740528 362.628224,94.8718565 Z M388.750441,350.20893 C391.37493,356.907927 391.702986,361.613104 389.734619,364.324603 C387.766252,367.036101 383.501524,368.551329 376.940301,368.870328 C360.865308,369.508329 348.153131,369.907072 338.803392,370.066572 C329.45365,370.226071 322.072386,370.146322 316.659378,369.827324 C311.24637,369.508323 307.227683,368.870333 304.603194,367.913333 C301.978705,366.956334 299.682313,365.520856 297.713946,363.606857 C282.295074,350.208862 268.516715,336.73132 256.378455,323.173824 C244.240195,309.616331 233.086286,294.224818 222.916393,276.998825 C218.979659,270.299828 215.781112,266.392138 213.320654,265.275639 C210.860196,264.159139 209.1379,264.398386 208.153718,265.993385 C207.497596,279.072378 205.939328,289.997961 203.47887,298.770457 C201.018411,307.542953 197.163752,314.95959 191.914775,321.020588 C186.665798,327.081584 179.940646,332.345004 171.739119,336.811001 C163.537592,341.277 153.367851,345.902429 141.229591,350.687426 C138.605102,351.644426 136.062667,352.282416 133.602209,352.601416 C131.14175,352.920417 128.025217,352.760919 124.252515,352.122918 C120.479812,351.484919 115.722998,350.288688 109.981929,348.534188 C104.24086,346.779689 96.94161,344.466974 88.0839607,341.595976 C88.740083,347.018973 89.1501532,351.644401 89.3141836,355.472401 C89.4782143,359.300398 89.4782143,362.649847 89.3141836,365.520847 C89.1501532,368.391845 88.740083,371.103304 88.0839607,373.655303 C87.4278386,376.207302 86.6076983,378.918761 85.623515,381.789758 C82.9990263,388.488755 79.5544366,391.040717 75.2896424,389.445718 C71.0248483,387.850719 65.2838654,382.4278 58.0665216,373.176804 C48.8808113,361.37381 47.2405304,335.854203 53.14563,296.617219 C57.4104241,265.036232 55.114031,245.418034 46.2563817,237.762037 C38.3829156,244.461034 31.9858205,249.564955 27.0649042,253.073954 C22.1439879,256.582953 18.289328,258.576671 15.5008087,259.055171 C12.7122895,259.533671 10.5799245,258.417189 9.10364958,255.705691 C7.6273747,252.99419 6.23313601,248.927003 4.92089166,243.504006 C3.28058624,236.167008 2.05037562,230.265599 1.23022292,225.799601 C0.410070204,221.333604 2.33100255e-13,217.824657 0,215.272659 C2.33100255e-13,212.72066 0.328056163,210.80669 0.984178333,209.530689 C1.6403005,208.254691 2.62446899,207.138207 3.93671333,206.181207 C7.54538527,203.629208 12.3021996,198.764533 18.2072992,191.587036 C24.1123987,184.409539 30.0994236,176.115667 36.1685537,166.705171 C42.2376837,157.294675 48.0606808,147.405827 53.6377192,137.038331 C59.2147576,126.670836 63.4794878,117.021234 66.4320375,108.089238 C68.4004039,102.02824 69.3025584,95.6483386 69.1385279,88.9493414 C68.9744974,82.250344 68.0723429,76.8274276 66.4320375,72.6804293 C63.8075488,64.7054324 63.8895628,60.0800038 66.678082,58.8040043 C69.4666012,57.5280048 72.3370927,58.4849901 75.2896424,61.6749887 L86.3616487,72.4411804 C90.1343512,76.109679 94.3170672,78.7413885 98.9099225,80.3363878 C103.830839,82.2503872 108.013555,85.4403379 111.458196,89.9063362 C114.902838,94.3723343 117.363259,99.2370093 118.839534,104.500507 C120.315808,109.764005 120.643865,115.107173 119.823712,120.530171 C119.003559,125.953169 116.78918,130.897592 113.180508,135.36359 C110.227959,139.191589 107.275453,143.258776 104.322903,147.565274 C101.370353,151.871773 98.0077779,157.135192 94.2350754,163.355689 C90.4623729,169.576187 86.1156287,177.072571 81.1947124,185.845068 C76.2737962,194.617565 70.2047572,205.383648 62.9874134,218.143643 C67.2522073,223.566642 71.1068673,229.228804 74.5515087,235.130301 C77.99615,241.031799 81.0306696,247.331951 83.6551583,254.030948 C85.2954638,250.202951 87.6738709,246.454758 90.7904511,242.78626 C93.9070315,239.117762 98.9098881,234.412584 105.799171,228.670585 C112.688454,222.928588 122.120068,215.591702 134.094298,206.659705 C146.068527,197.727709 161.897237,186.243886 181.580902,172.207891 C185.189574,146.049902 188.224094,122.843009 190.684553,102.586518 C193.145011,82.3300257 195.35939,65.503035 197.327755,52.1050405 C197.983877,45.0870433 198.229921,39.5046292 198.06589,35.3576309 C197.901859,31.2106327 196.835677,28.0206818 194.86731,25.7876826 C192.898943,23.5546837 189.864424,22.1192058 185.76366,21.4812059 C181.662897,20.8432063 175.8399,20.3647137 168.294495,20.0457136 C169.9348,12.070717 172.313207,6.88704681 175.429788,4.49454778 C178.546368,2.10204875 184.041309,0.905817175 191.914775,0.905817175 C198.804059,0.905817175 205.365181,2.18179752 211.598342,4.73379649 C217.831503,7.28579545 223.162416,10.6352439 227.591239,14.7822422 C232.020064,18.9292405 235.300625,23.7939155 237.433023,29.3764133 C239.565419,34.958911 239.975491,40.6210738 238.663246,46.3630716 C236.694879,54.6570681 234.890571,63.6686793 233.250264,73.3981754 C231.609959,83.1276714 229.80565,94.5317457 227.837285,107.61074 C235.382689,110.481739 241.861798,112.794454 247.274806,114.548953 C252.687814,116.303452 257.526642,117.579433 261.791437,118.376932 C266.056231,119.174432 269.992905,119.573176 273.601577,119.573176 C277.210248,119.573176 280.818866,119.254181 284.427538,118.616181 C293.613248,117.340181 300.502427,118.217418 305.095283,121.247917 C309.688138,124.278415 312.804672,129.781081 314.444976,137.756077 C316.413343,146.369074 316.085287,152.190734 313.460799,155.221233 C310.83631,158.251732 307.719776,159.766958 304.111105,159.766958 C299.51825,159.766958 295.25352,160.085954 291.316786,160.723953 C287.380054,161.361953 282.45921,163.036677 276.554111,165.748176 C270.649012,168.459675 263.185735,172.526862 254.164054,177.94986 C245.142374,183.372858 233.414366,190.869243 218.979679,200.439239 C215.699068,202.991238 213.812745,205.862193 213.320654,209.052191 C212.828563,212.242191 213.894745,214.953649 216.519234,217.186649 C219.471784,219.100647 222.834359,221.732357 226.60706,225.081856 C230.379763,228.431354 234.234423,231.9403 238.171157,235.608799 C242.10789,239.277297 245.880535,242.945741 249.489207,246.614239 C253.097879,250.282737 255.886356,253.233442 257.854723,255.466441 C260.807273,259.932439 264.333878,264.238873 268.434641,268.385871 C272.535404,272.532869 277.784302,276.839303 284.181494,281.305302 C290.578684,285.771301 298.288005,290.476478 307.309685,295.420975 C316.331364,300.365473 327.075204,305.868138 339.541525,311.929136 C355.288457,319.904134 366.770422,326.682778 373.987766,332.265276 C381.20511,337.847774 386.125953,343.828931 388.750441,350.20893 Z M234.464907,132.555092 C237.202262,131.206094 238.143214,129.744702 237.28779,128.170871 C236.432368,126.59704 231.385445,123.449425 222.146869,118.727932 C221.462531,121.425928 220.692661,124.517335 219.837238,128.002247 C218.981814,131.487158 218.040862,135.253054 217.014354,139.300048 C224.884251,136.377219 230.701044,134.128923 234.464907,132.555092 Z M168.373206,245.755271 C162.084726,246.405419 154.695873,245.674015 146.206425,243.561034 C137.716978,241.448055 130.170915,238.441167 123.568011,234.540281 C117.279531,230.639395 111.619985,229.907991 106.589201,232.346044 C101.558417,234.784098 96.2132894,242.667018 90.5536576,255.995045 C89.9248095,264.121891 89.6889951,275.499303 89.8462071,290.127624 C90.003419,304.755946 90.3964432,319.871652 91.0252911,335.475194 C96.999347,336.125342 103.602152,335.150136 110.833903,332.549544 C118.065655,329.948953 125.218694,325.154188 132.293233,318.1651 C139.367773,311.176013 146.049183,301.830281 152.337663,290.127624 C158.626142,278.424968 163.97127,263.634332 168.373206,245.755271 Z" id="伏"></path>
            <path d="M522.565039,254.192427 C522.072975,256.903391 521.150367,259.737539 519.797191,262.694955 C518.444015,265.652371 516.906336,268.363295 515.184112,270.827808 C511.739661,275.756835 509.40239,279.699996 508.17223,282.657412 C506.942069,285.614828 506.203983,289.434768 505.957952,294.117343 C505.465888,298.553467 504.235745,303.112747 502.267488,307.795324 C500.29923,312.477899 497.900453,316.667509 495.071083,320.364279 C492.241712,324.061049 489.10485,327.080032 485.660401,329.421319 C482.21595,331.762607 478.894565,332.81001 475.696147,332.563558 C472.743762,332.317107 469.914435,330.530363 467.208081,327.203269 C464.501727,323.876176 462.348978,319.933013 460.749769,315.373664 C459.15056,310.814315 458.350968,306.316646 458.350968,301.880522 C458.350968,297.444398 459.827138,293.99413 462.779524,291.529618 C471.144617,284.382528 476.741764,276.126532 479.571135,266.761382 C482.400505,257.396231 484.18421,248.154444 484.922307,239.035745 C485.16834,234.599621 484.860804,230.533235 483.999692,226.836465 C483.138578,223.139695 481.969943,220.305547 480.49375,218.333937 C479.017558,216.362326 477.356866,215.49976 475.511625,215.746211 C473.666383,215.992663 471.759662,217.717796 469.791405,220.921663 C468.069179,224.125531 466.223967,227.945469 464.25571,232.381593 C462.287452,236.817717 460.44224,241.315386 458.720014,245.874735 C456.997789,250.434085 455.460111,254.808532 454.106933,258.998203 C452.753757,263.187877 451.708136,266.51492 450.970039,268.979433 C450.724008,274.154911 451.585107,275.510373 453.553363,273.045859 C455.029558,268.609735 456.444221,264.481738 457.797399,260.661741 C459.150575,256.841745 460.442225,253.699539 461.672384,251.235026 C462.902546,248.770512 463.886659,247.538275 464.624756,247.538275 C465.362852,247.538275 465.485866,248.770512 464.993802,251.235026 C464.501738,253.94599 463.702146,257.273033 462.595002,261.216254 C461.487857,265.159477 460.442236,267.993625 459.458106,269.718783 C458.72001,271.197491 458.104939,273.292296 457.612875,276.00326 C457.120811,278.714225 456.690261,282.472551 456.321212,287.278353 C455.952164,292.084153 455.583122,298.245345 455.214072,305.76211 C454.845025,313.278876 454.53749,322.582274 454.291457,333.672584 C454.291457,338.108708 453.553371,341.743811 452.077178,344.578001 C450.600986,347.412192 447.033572,349.075713 441.374833,349.568616 C438.422448,349.815067 435.777643,348.64444 433.440336,346.056702 C431.10303,343.468962 428.212197,339.094517 424.767746,332.933234 C420.585199,325.786144 417.448337,319.686566 415.357064,314.634314 C413.265791,309.582061 411.851126,305.084392 411.11303,301.141171 C410.1289,295.965693 409.144787,292.145754 408.160658,289.681241 C407.17653,287.216728 405.577345,284.9987 403.363055,283.027088 C398.934476,278.098061 395.367064,273.169108 392.66071,268.240083 C391.184518,265.77557 390.692461,264.296882 391.184525,263.803981 C391.676589,263.311078 393.398789,263.68075 396.351174,264.913006 C401.517849,266.884617 406.007869,268.486526 409.821367,269.718783 C413.634866,270.951039 417.509815,272.060054 421.446328,273.045859 C424.644746,270.827797 427.597088,268.486545 430.303442,266.022032 C433.009796,263.557517 435.777616,260.600146 438.606985,257.149828 C441.436355,253.699509 444.450205,249.263452 447.648621,243.841523 C450.847039,238.419593 454.537468,231.642284 458.720014,223.509389 C462.902561,215.869399 468.561216,211.556565 475.696147,210.570759 C481.600919,209.831404 487.505602,211.125255 493.410374,214.452349 C499.315146,217.779441 504.297222,221.969051 508.356752,227.021304 C512.416284,232.073555 514.999583,237.310568 516.106727,242.732497 C517.213872,248.154426 516.045237,252.467259 512.600786,255.671128 C511.124593,256.903383 509.586916,258.751741 507.987707,261.216254 C506.388498,263.680769 504.85082,266.268468 503.374627,268.979433 C501.898433,271.690396 500.729798,274.339709 499.868686,276.927449 C499.007574,279.515187 498.577025,281.54838 498.577025,283.027088 C498.577025,284.259346 499.007574,284.998689 499.868686,285.245139 C500.729798,285.49159 501.406376,284.998696 501.898441,283.766439 C503.374635,280.069669 504.850805,276.804237 506.326998,273.970048 C507.80319,271.135857 509.52539,268.363321 511.493646,265.652356 C515.676195,260.72333 517.767436,257.273063 517.767436,255.301452 C517.767436,254.069196 518.197986,252.652122 519.059098,251.050187 C519.920211,249.448254 520.719803,248.770523 521.4579,249.016975 C522.934093,249.509877 523.303135,251.235011 522.565039,254.192427 Z M654.683645,286.72384 C649.024906,290.42061 642.812687,294.733443 636.046803,299.662471 C629.280919,304.591496 621.59253,310.999135 612.981404,318.885578 L612.981404,337.73901 C612.981404,343.900294 613.104418,349.815037 613.350451,355.483418 C613.596482,365.587922 613.842512,375.569051 614.088543,385.427104 C614.334576,395.285159 614.826633,403.171483 615.564728,409.086315 C616.056792,414.754695 616.179807,420.854274 615.933776,427.385235 C615.687743,433.916194 614.949658,439.769327 613.719497,444.944805 C612.9814,448.641573 611.751257,450.613155 610.029033,450.859607 C608.306808,451.106058 606.707623,450.366715 605.23143,448.641556 C601.540948,444.205432 597.296956,440.323881 592.499329,436.996789 C587.701701,433.669695 581.36647,429.788146 573.493441,425.352021 C570.295023,423.38041 566.420074,420.176592 561.86848,415.740468 C557.316884,411.304344 552.949879,406.375391 548.767333,400.953462 C545.07685,404.650232 540.771352,410.133691 535.850709,417.404005 C530.930065,424.67432 526.747582,431.75969 523.303131,438.660327 C521.334874,442.357097 518.382532,444.082229 514.446018,443.835779 C510.509503,443.589328 507.557163,442.110642 505.588904,439.399677 C501.160327,431.513233 497.65442,424.92076 495.071083,419.622056 C492.487745,414.323353 490.704039,410.010519 489.71991,406.683425 C488.735782,403.356333 488.489753,400.830244 488.981817,399.105085 C489.473881,397.379927 490.581009,396.147688 492.303235,395.408334 C493.041332,394.915431 493.779416,394.052864 494.517513,392.820609 C495.25561,391.588352 496.239724,389.123874 497.469885,385.427104 C500.176237,377.787113 502.144466,373.351056 503.374627,372.118799 C504.604787,370.886543 505.342873,371.625886 505.588904,374.33685 C506.327001,381.73039 507.372622,385.981612 508.7258,387.090644 C510.078976,388.199674 512.969811,388.014838 517.398389,386.53613 C532.652384,380.867749 546.306963,375.384291 558.362538,370.085587 C570.418114,364.786882 582.350495,359.426647 594.160038,354.004718 C594.652102,348.336336 594.652102,342.914488 594.160038,337.73901 C591.945748,339.710621 589.239435,342.359934 586.041017,345.687026 C582.842599,349.01412 580.50533,351.909879 579.029137,354.374392 C578.045007,355.8531 577.122401,357.023727 576.261289,357.886306 C575.400175,358.748886 574.170034,359.241782 572.570825,359.365007 C570.971616,359.488232 568.880373,359.180174 566.297035,358.44082 C563.713698,357.701466 560.453821,356.59245 556.517306,355.113742 C549.382374,352.402779 543.539199,348.336392 538.987603,342.914464 C534.436009,337.492533 531.791203,332.810029 531.053106,328.866806 C530.315009,325.170036 530.561038,322.582337 531.791199,321.103629 C533.021359,319.624921 534.620544,319.748145 536.588802,321.473303 C538.311026,322.952011 540.279255,323.444907 542.493545,322.952004 C544.707832,322.459103 548.398261,320.241074 553.564935,316.297851 C559.961772,311.122373 566.420018,306.501481 572.939871,302.435033 C579.459724,298.368587 586.287013,294.240589 593.421946,290.050917 C593.175913,284.136085 592.745364,278.467789 592.130283,273.045859 C591.515202,267.62393 590.838623,263.803992 590.100528,261.58593 C588.624336,256.410452 587.578715,251.912781 586.963634,248.092786 C586.348553,244.272791 585.794989,239.651898 585.302925,234.229968 C578.660056,228.315137 573.06291,223.694243 568.511314,220.367151 C563.95972,217.040057 560.146279,214.575582 557.070875,212.973648 C553.995474,211.371713 551.412175,210.570759 549.320902,210.570759 C547.229629,210.570759 545.445922,210.940431 543.96973,211.679785 C537.572893,215.623006 536.711795,213.897873 541.386405,206.504333 C541.878469,205.518526 542.801076,204.594348 544.154253,203.731769 C545.507429,202.869189 547.906208,202.006623 551.350657,201.144042 C554.795108,200.281463 559.592663,199.357284 565.743466,198.37148 C571.894271,197.385673 580.01321,196.153436 590.100528,194.674728 C591.822754,188.266993 592.929882,181.243235 593.421946,173.603244 C593.91401,165.963253 593.667981,158.693047 592.683852,151.79241 C591.699724,145.631127 591.761231,141.687965 592.868376,139.962805 C593.975521,138.237646 596.251285,136.389289 599.695734,134.417678 C601.663991,133.678324 603.447698,133.739936 605.046907,134.602516 C606.646116,135.465095 608.060778,136.758945 609.29094,138.484105 C610.521101,140.209264 611.505215,142.180845 612.243312,144.398907 C612.981407,146.616969 613.350451,148.711774 613.350451,150.683385 C612.858385,158.323376 614.703599,164.238119 618.886146,168.427792 C620.854402,170.399403 622.20756,178.901846 622.945657,193.935378 C632.54091,196.646341 637.830523,202.930756 638.814651,212.788809 C639.306715,216.732032 638.445616,219.504566 636.231327,221.106501 C634.017037,222.708435 628.973453,224.371956 621.100424,226.097115 C620.362327,229.300983 619.501228,233.428981 618.5171,238.481232 C617.532972,243.533485 616.671871,248.708885 615.933776,254.007588 C615.195678,259.306294 614.580607,264.235245 614.088543,268.794596 C613.596479,273.353945 613.473464,276.619375 613.719497,278.590987 C618.640141,275.633571 622.638102,273.292319 625.713503,271.567158 C628.788907,269.841999 631.925769,268.24009 635.124187,266.761382 C634.38609,262.078807 633.648006,252.467349 632.909909,237.926721 C632.663878,232.997694 632.909905,230.841277 633.648002,231.457405 C634.386098,232.073534 635.86227,236.694426 638.076558,245.320224 C639.552752,251.727957 641.274951,256.225628 643.243208,258.813366 C645.211465,261.401104 647.917778,263.064627 651.362229,263.803981 C652.838421,264.050432 654.007057,265.221059 654.868169,267.315895 C655.729281,269.41073 656.344352,271.751984 656.713401,274.339722 C657.082449,276.927462 657.143956,279.453549 656.897923,281.918062 C656.651892,284.382577 655.913806,285.984486 654.683645,286.72384 Z M704.873955,400.953462 C701.429504,407.114745 698.477163,410.441788 696.01684,410.93469 C693.55652,411.427593 690.973221,410.68825 688.266867,408.716639 C680.63987,402.801807 671.782845,397.688019 661.695526,393.37512 C651.608208,389.062221 640.782956,385.180672 629.219445,381.730353 C625.28293,380.498097 623.130181,379.204247 622.761133,377.848764 C622.392086,376.493281 624.052778,375.938776 627.74326,376.185226 C631.187709,376.431677 634.81663,376.431677 638.630127,376.185226 C642.443626,375.938776 646.134052,375.507492 649.70152,374.891363 C653.268986,374.275234 656.344341,373.597503 658.92768,372.858149 C661.511017,372.118795 663.417737,371.379452 664.647898,370.640098 C669.076476,367.682682 671.536762,365.218207 672.028826,363.246596 C672.52089,361.274986 671.536777,358.071166 669.076456,353.635042 C667.35423,350.677626 665.816553,348.21315 664.463375,346.241539 C663.110199,344.269928 661.941563,343.160914 660.957435,342.914464 C658.005048,342.17511 656.959427,341.189318 657.820541,339.957061 C658.681653,338.724805 661.818515,338.108686 667.231223,338.108686 C673.382026,338.108686 679.348218,340.388326 685.129973,344.947675 C690.911729,349.507025 695.770791,355.113709 699.707306,361.767895 C703.643819,368.17563 706.227118,374.891328 707.457279,381.915192 C708.687441,388.939054 707.82634,395.285081 704.873955,400.953462 Z M594.160038,361.398221 C587.763201,361.151768 580.751391,364.232365 573.124395,370.640098 C565.497397,377.047834 558.116543,386.043173 550.981611,397.626385 C553.687965,399.351544 556.947842,400.953455 560.761341,402.432163 C564.574838,403.910871 570.048971,405.143107 577.183904,406.128914 C583.580741,407.114719 588.009253,406.436988 590.469574,404.0957 C592.929897,401.754413 593.790995,397.749638 593.052898,392.081257 C592.560834,387.891585 592.499327,383.147468 592.868376,377.848764 C593.237424,372.550061 593.667973,367.0666 594.160038,361.398221 Z" id="味"></path>
        </g>
    </g>
</svg>