<?xml version="1.0" encoding="UTF-8"?>
<svg width="1200px" height="1200px" viewBox="0 0 1200 1200" version="1.1" xmlns="http://www.w3.org/2000/svg" xmlns:xlink="http://www.w3.org/1999/xlink">
    <!-- Generator: Sketch 53.2 (72643) - https://sketchapp.com -->
    <title>Artboard</title>
    <desc>Created with Sketch.</desc>
    <g id="Artboard" stroke="none" stroke-width="1" fill="none" fill-rule="evenodd">
        <g id="FookMei_logo" transform="translate(60.000000, 257.000000)" fill="#000000" fill-rule="nonzero">
            <path d="M553.071563,143.087951 C552.581922,147.734377 550.745803,152.122604 547.563144,156.252761 C544.380487,160.382918 540.585836,163.48049 536.179081,165.545568 C531.772325,167.610647 527.243227,168.38504 522.591651,167.86877 C517.940075,167.3525 513.900607,165.029322 510.473129,160.899164 C501.169977,150.057502 493.458271,141.539181 487.337775,135.343945 C481.21728,129.148709 476.076143,124.502352 471.914204,121.404734 C467.752269,118.307116 464.324843,116.371134 461.631824,115.596729 C458.938808,114.822325 456.368237,114.435128 453.920039,114.435128 C449.513283,114.435128 447.554754,113.015408 448.044395,110.175925 C448.534033,107.336442 453.18554,103.335412 461.999052,98.1727156 C475.70896,89.9124012 485.624016,85.0079133 491.744508,83.4591043 C497.865004,81.9102953 503.618184,82.4265573 509.004218,85.0079056 C529.079443,95.3332985 541.809881,104.626013 547.195916,112.886327 C552.581953,121.146642 554.540482,131.213749 553.071563,143.087951 Z M592.912518,531.905643 C596.915324,542.106624 597.415668,549.271492 594.413563,553.400459 C591.411459,557.529427 584.907001,559.836759 574.899986,560.322518 C550.382807,561.294042 530.99451,561.901234 516.734519,562.144114 C502.474525,562.386994 491.216804,562.265555 482.961019,561.779796 C474.705234,561.294034 468.576033,560.322527 464.573227,558.865243 C460.570421,557.40796 457.068022,555.222069 454.065917,552.307502 C430.549437,531.905541 409.535026,511.382446 391.022053,490.737602 C372.50908,470.092761 355.497415,446.655144 339.986546,420.424049 C333.982337,410.223068 329.103994,404.272585 325.351364,402.572422 C321.598734,400.872259 318.971932,401.236574 317.470882,403.665379 C316.47018,423.581578 314.093549,440.218645 310.340919,453.577072 C306.588289,466.935499 300.709258,478.229275 292.703649,487.458734 C284.698039,496.688191 274.441005,504.70313 261.93224,511.503782 C249.423474,518.304436 233.912837,525.347865 215.399865,532.634279 C211.39706,534.091563 207.5194,535.06307 203.766771,535.548832 C200.014141,536.034594 195.260882,535.791717 189.50685,534.820193 C183.752817,533.848672 176.497842,532.027096 167.741706,529.355409 C158.985571,526.683725 147.852936,523.162009 134.343469,518.790161 C135.344171,527.048097 135.9696,534.091526 136.219775,539.920659 C136.46995,545.74979 136.46995,550.850205 136.219775,555.222055 C135.9696,559.593902 135.344171,563.72281 134.343469,567.608898 C133.342768,571.494986 132.091911,575.623894 130.590859,579.995741 C126.588054,590.196722 121.334451,594.082753 114.829893,591.653948 C108.325335,589.225144 99.5693303,580.967328 88.5616167,566.880259 C74.5517996,548.907102 72.0500839,510.046806 81.0563951,450.298202 C87.5609532,402.207862 84.0585514,372.334008 70.5490847,360.675744 C58.5406696,370.876725 48.7839791,378.648784 41.2787198,383.992156 C33.7734605,389.335527 27.8944288,392.371487 23.6414486,393.100128 C19.3884683,393.82877 16.1362381,392.128633 13.8846603,387.999665 C11.6330825,383.870694 9.50662425,377.677334 7.50522177,369.419399 C5.00346866,358.246894 3.12718198,349.260451 1.87630544,342.459796 C0.625428892,335.659144 3.5551872e-13,330.315852 0,326.429764 C3.5551872e-13,322.543676 0.500343114,319.629155 1.50104435,317.686109 C2.50174559,315.743067 4.00277492,314.042927 6.00417741,312.585643 C11.5080342,308.699555 18.7630094,301.291811 27.7693205,290.362189 C36.7756317,279.432567 45.9068934,266.80297 55.1633799,252.473021 C64.4198663,238.143071 73.3009568,223.084706 81.8069173,207.297473 C90.3128778,191.51024 96.8173384,176.81619 101.320494,163.214882 C104.322597,153.985423 105.698541,144.270349 105.448366,134.069368 C105.198191,123.868386 103.822247,115.610573 101.320494,109.29568 C97.3176888,97.1516547 97.4427746,90.1082259 101.695755,88.1651819 C105.948735,86.2221379 110.326737,87.679399 114.829893,92.537009 L131.716642,108.931361 C137.470674,114.517613 143.850049,118.525081 150.854958,120.953886 C158.360217,123.868452 164.739591,128.725989 169.993273,135.526643 C175.246955,142.327297 178.999528,149.735041 181.251106,157.750098 C183.502683,165.765155 184.003027,173.90153 182.75215,182.159467 C181.501274,190.417404 178.123957,197.946586 172.620101,204.74724 C168.116945,210.576372 163.613857,216.769733 159.110701,223.327506 C154.607546,229.88528 149.479029,237.900216 143.724997,247.372556 C137.970965,256.844895 131.341418,268.260108 123.836159,281.618535 C116.3309,294.976964 107.074552,311.371151 96.0668387,330.801592 C102.571397,339.05953 108.450428,347.681658 113.70411,356.668235 C118.957791,365.654815 123.585965,375.24845 127.58877,385.44943 C130.090523,379.6203 133.718011,373.912693 138.471341,368.326442 C143.224672,362.740191 150.854905,355.575323 161.362268,346.831623 C171.869631,338.087926 186.254496,326.915592 204.517293,313.314282 C222.780091,299.712975 246.921646,282.22584 276.942683,260.852356 C282.44654,221.019954 287.074715,185.68137 290.827344,154.835547 C294.579974,123.989723 297.95729,98.3662139 300.959391,77.9642518 C301.960093,67.2775096 302.335353,58.7768194 302.085177,52.4619264 C301.835001,46.1470333 300.208886,41.2894961 297.206782,37.8891689 C294.204677,34.4888421 289.576504,32.3029504 283.322122,31.3314282 C277.067739,30.3599063 268.186649,29.6312758 256.678584,29.1455145 C259.180337,17.0014895 262.807825,9.10799155 267.561156,5.464784 C272.314487,1.82157645 280.695234,0 292.703649,0 C303.211013,0 313.217874,1.94301488 322.724536,5.82910294 C332.231199,9.71519099 340.361775,14.815605 347.116506,21.1304981 C353.87124,27.4453912 358.874671,34.8531353 362.126951,43.3539531 C365.379229,51.8547706 366.004659,60.4768992 364.003256,69.2205974 C361.001152,81.8503835 358.249266,95.5729261 355.747511,110.388637 C353.245759,125.204347 350.49387,142.570043 347.491769,162.486244 C358.999831,166.858093 368.881608,170.379808 377.137393,173.051493 C385.393178,175.723179 392.77324,177.666194 399.277798,178.880596 C405.782356,180.094999 411.786474,180.702191 417.29033,180.702191 C422.794187,180.702191 428.297961,180.216437 433.801818,179.244915 C447.811635,177.301871 458.31884,178.637694 465.32375,183.252423 C472.328657,187.867153 477.081917,196.246405 479.583669,208.39043 C482.585774,221.505977 482.08543,230.370982 478.082627,234.985712 C474.079821,239.600441 469.326561,241.907772 463.822705,241.907772 C456.817797,241.907772 450.313336,242.393525 444.309127,243.365047 C438.304921,244.336569 430.799773,246.886776 421.793463,251.015745 C412.787152,255.144714 401.404347,261.338073 387.644703,269.59601 C373.885061,277.853948 355.997795,289.269161 333.982369,303.841991 C328.978861,307.72808 326.101889,312.099861 325.351364,316.957471 C324.600838,321.815083 326.226953,325.943988 330.229759,329.344317 C334.732914,332.258881 339.861431,336.26635 345.615461,341.366842 C351.369494,346.467331 357.248525,351.810623 363.252733,357.396874 C369.256942,362.983125 375.010887,368.569293 380.514743,374.155544 C386.0186,379.741795 390.271516,384.235018 393.273621,387.635344 C397.776776,394.435999 403.155466,400.993674 409.409848,407.308567 C415.66423,413.62346 423.669719,420.181135 433.426558,426.98179 C443.183393,433.782445 454.941458,440.947312 468.7011,448.476606 C482.460741,456.005902 498.846979,464.385154 517.860302,473.614613 C541.877131,485.758639 559.38914,496.080905 570.396853,504.581723 C581.404567,513.08254 588.909715,522.190422 592.912518,531.905643 Z M357.600053,200.470565 C361.775,198.416361 363.210116,196.191008 361.905445,193.794437 C360.600777,191.397867 352.903335,186.604798 338.812888,179.415086 C337.769153,183.523493 336.594967,188.230971 335.290296,193.537663 C333.985624,198.844355 332.550508,204.57892 330.984904,210.74153 C342.987875,206.290756 351.859503,202.867135 357.600053,200.470565 Z M256.798632,372.84754 C247.207599,373.837561 235.938304,372.723806 222.990409,369.506238 C210.042514,366.288674 198.533447,361.709898 188.462862,355.769775 C178.871829,349.829652 170.240029,348.715897 162.567202,352.428474 C154.894376,356.141051 146.74212,368.144865 138.11019,388.440283 C137.151086,400.815538 136.791428,418.140633 137.031204,440.41609 C137.27098,462.691549 137.87041,485.709178 138.829514,509.469664 C147.940995,510.459685 158.011429,508.974678 169.041117,505.014594 C180.070805,501.054513 190.980442,493.753225 201.770354,483.110504 C212.560267,472.467786 222.750587,458.236456 232.34162,440.41609 C241.932653,422.595726 250.084909,400.073101 256.798632,372.84754 Z" id="伏"></path>
            <path d="M797.076259,385.962601 C796.325502,390.0988 794.917851,394.422945 792.853269,398.935164 C790.788687,403.447384 788.442603,407.583523 785.814954,411.343705 C780.559651,418.864071 776.993606,424.880272 775.116714,429.392491 C773.23982,433.904711 772.1137,439.732908 771.738322,446.877254 C770.987565,453.645583 769.110699,460.601816 766.10767,467.746165 C763.104638,474.890511 759.444753,481.282726 755.127896,486.923001 C750.81104,492.563275 746.025034,497.169429 740.769733,500.741602 C735.51443,504.313775 730.446893,505.91183 725.56697,505.53581 C721.062426,505.159793 716.745635,502.433703 712.616469,497.357454 C708.487303,492.281209 705.202789,486.265006 702.762827,479.308668 C700.322865,472.35233 699.102904,465.490101 699.102904,458.721772 C699.102904,451.953443 701.355142,446.689266 705.859685,442.929084 C718.622561,432.024553 727.162299,419.428129 731.479156,405.139436 C735.796012,390.850741 738.517465,376.750267 739.643602,362.837592 C740.018982,356.069263 739.549764,349.865054 738.235939,344.224779 C736.922112,338.584505 735.13909,334.26036 732.886818,331.252216 C730.634546,328.244068 728.100778,326.928025 725.285439,327.304042 C722.470097,327.680062 719.560954,330.31215 716.557926,335.200386 C713.930274,340.088626 711.114977,345.91682 708.111949,352.685149 C705.108917,359.453478 702.29362,366.315708 699.665969,373.272046 C697.038317,380.228383 694.692236,386.90261 692.627651,393.294919 C690.563069,399.68723 688.967734,404.763402 687.841597,408.523584 C687.46622,416.419967 688.780024,418.488037 691.783053,414.727852 C694.035328,407.959523 696.193722,401.661314 698.258306,395.833028 C700.322888,390.004746 702.293598,385.210586 704.170489,381.450404 C706.047384,377.690219 707.548876,375.810158 708.675013,375.810158 C709.801147,375.810158 709.988835,377.690219 709.238077,381.450404 C708.48732,385.586603 707.267359,390.662775 705.578155,396.679066 C703.88895,402.69536 702.293615,407.019506 700.792097,409.651633 C699.665963,411.907742 698.72753,415.10385 697.976773,419.240049 C697.226015,423.376251 696.569113,429.110443 696.006043,436.442801 C695.442976,443.775156 694.879917,453.175472 694.316847,464.644029 C693.75378,476.112586 693.284565,490.307063 692.909185,507.227885 C692.909185,513.996214 691.783065,519.5424 689.530793,523.866611 C687.278521,528.190821 681.83561,530.728906 673.2019,531.480943 C668.697357,531.856961 664.662097,530.0709 661.095998,526.122709 C657.529899,522.174516 653.119267,515.500292 647.863964,506.099836 C641.482526,495.195305 636.69652,485.888994 633.505801,478.180619 C630.315082,470.472244 628.156685,463.610014 627.030551,457.593723 C625.529033,449.697339 624.027542,443.869141 622.526027,440.10896 C621.024513,436.348778 618.584588,432.964664 615.206179,429.956517 C608.449361,422.436151 603.006453,414.915898 598.877286,407.395534 C596.625015,403.635353 595.874269,401.379274 596.625026,400.627239 C597.375783,399.875202 600.003395,400.439222 604.507939,402.319312 C612.390891,405.327459 619.24145,407.77154 625.059821,409.651633 C630.878192,411.531722 636.790318,413.22378 642.796376,414.727852 C647.676299,411.343688 652.180777,407.771569 656.309944,404.011387 C660.43911,400.251202 664.662057,395.739051 668.978911,390.474797 C673.295767,385.21054 677.894088,378.442314 682.774009,370.169913 C687.653932,361.897509 693.284531,351.557163 699.665969,339.14856 C706.047407,327.491994 714.680988,320.911773 725.56697,319.407698 C734.576059,318.279643 743.585013,320.25371 752.594102,325.329958 C761.603192,330.406204 769.204497,336.798419 775.398245,344.506794 C781.591996,352.215166 785.533412,360.205436 787.222617,368.477837 C788.911821,376.750239 787.128799,383.330459 781.873495,388.218699 C779.621224,390.098788 777.275142,392.918884 774.835181,396.679066 C772.395219,400.439251 770.049138,404.387381 767.796866,408.523584 C765.544591,412.659783 763.761569,416.701919 762.447745,420.650113 C761.13392,424.598303 760.477018,427.700408 760.477018,429.956517 C760.477018,431.83661 761.13392,432.964647 762.447745,433.340665 C763.761569,433.716682 764.793846,432.964659 765.544603,431.084566 C767.796877,425.444292 770.049115,420.462124 772.301387,416.137916 C774.553658,411.813705 777.18127,407.583563 780.184299,403.447361 C786.56574,395.926997 789.756411,390.66282 789.756411,387.654673 C789.756411,385.774583 790.413313,383.612511 791.727138,381.16839 C793.040965,378.724271 794.260926,377.690236 795.387063,378.066257 C797.639335,378.818291 798.202393,381.450381 797.076259,385.962601 Z M998.653621,435.596763 C990.019911,441.237037 980.54174,447.817258 970.218826,455.337624 C959.895912,462.857988 948.165503,472.634316 935.027247,484.666902 L935.027247,513.432154 C935.027247,522.832613 935.214934,531.856915 935.590314,540.505336 C935.965691,555.922084 936.341066,571.150595 936.716443,586.191325 C937.091823,601.232058 937.842569,613.264462 938.968703,622.288901 C939.71946,630.937319 939.907148,640.243633 939.53177,650.208118 C939.15639,660.1726 938.030273,669.102902 936.153379,676.999286 C935.027241,682.639557 933.150375,685.647659 930.522726,686.023679 C927.895074,686.399696 925.45515,685.271659 923.202878,682.639532 C917.572197,675.871203 911.09701,669.949002 903.777124,664.872757 C896.457239,659.796509 886.791384,653.874311 874.779265,647.105982 C869.899342,644.097835 863.987215,639.209672 857.04271,632.441343 C850.098202,625.673014 843.43533,618.152761 837.053892,609.88036 C831.423211,615.520634 824.854183,623.886913 817.346608,634.979453 C809.839033,646.071993 803.457691,656.882356 798.202388,667.410867 C795.199359,673.051141 790.694881,675.683228 784.688823,675.307211 C778.682762,674.931193 774.178287,672.675118 771.175255,668.538916 C764.41844,656.50633 759.069373,646.447993 755.127896,638.3636 C751.18642,630.279208 748.464965,623.698987 746.96345,618.622739 C745.461936,613.546494 745.086561,609.692363 745.837318,607.060236 C746.588076,604.428109 748.277255,602.548045 750.904906,601.41999 C752.031044,600.667953 753.157161,599.351909 754.283298,597.47182 C755.409436,595.591727 756.910927,591.8316 758.787822,586.191325 C762.916985,574.53476 765.919972,567.766533 767.796866,565.886441 C769.673758,564.006351 770.799878,565.134389 771.175255,569.270588 C772.301392,580.551137 773.896728,587.037354 775.961312,588.729438 C778.025894,590.421519 782.436528,590.13951 789.193344,587.8834 C812.466827,579.234979 833.300032,570.8687 851.693589,562.784308 C870.087145,554.699912 888.292742,546.521639 906.310918,538.249238 C907.061676,529.600817 907.061676,521.328538 906.310918,513.432154 C902.932509,516.440301 898.803406,520.482438 893.923482,525.558683 C889.043559,530.634931 885.477517,535.053079 883.225245,538.813261 C881.723728,541.069371 880.316079,542.855432 879.002255,544.171495 C877.688428,545.487559 875.811564,546.239585 873.371603,546.427594 C870.931641,546.615602 867.740967,546.145588 863.799491,545.017533 C859.858015,543.889478 854.884322,542.19742 848.878261,539.94131 C837.99228,535.805111 829.07717,529.600902 822.132662,521.328501 C815.188157,513.056097 811.152897,505.911859 810.02676,499.895564 C808.900622,494.25529 809.275997,490.307159 811.152891,488.05105 C813.029783,485.79494 815.469708,485.982946 818.472739,488.615073 C821.100388,490.871183 824.103375,491.623209 827.481784,490.871171 C830.86019,490.119136 836.490788,486.735023 844.37374,480.718729 C854.133587,472.822345 863.98713,465.77211 873.934667,459.567807 C883.882204,453.363506 894.298805,447.065294 905.18479,440.672986 C904.80941,431.648547 904.152507,423.000256 903.21406,414.727852 C902.275613,406.455451 901.243336,400.627257 900.117202,397.243092 C897.86493,389.346708 896.269595,382.484476 895.331147,376.656193 C894.3927,370.82791 893.548111,363.777675 892.797353,355.505271 C882.662126,346.480835 874.122391,339.430597 867.177883,334.354351 C860.233378,329.278103 854.415095,325.517978 849.722859,323.07386 C845.030626,320.629739 841.089209,319.407698 837.89849,319.407698 C834.707771,319.407698 831.986316,319.971718 829.734044,321.099773 C819.974197,327.116065 818.660392,324.483978 825.792588,313.203429 C826.543345,311.699354 827.950993,310.289308 830.015578,308.973244 C832.080159,307.657181 835.740048,306.341137 840.995348,305.025071 C846.250652,303.709007 853.570426,302.298961 862.954893,300.794889 C872.339363,299.290814 884.726674,297.410753 900.117202,295.154643 C902.744853,285.378167 904.434032,274.661807 905.18479,263.005241 C905.935547,251.348674 905.560172,240.256302 904.058658,229.72779 C902.557143,220.327333 902.650987,214.311131 904.340192,211.679004 C906.029396,209.046876 909.501597,206.226781 914.756898,203.218635 C917.759927,202.09058 920.481383,202.184583 922.921344,203.500647 C925.361306,204.816711 927.5197,206.790777 929.396595,209.422905 C931.273489,212.055033 932.774981,215.063134 933.901118,218.447299 C935.027253,221.831463 935.590314,225.02757 935.590314,228.035717 C934.839554,239.692283 937.654853,248.716586 944.036291,255.108896 C947.03932,258.117043 949.103873,271.089478 950.230011,294.026594 C964.869778,298.162793 972.940301,307.751115 974.441816,322.791846 C975.192573,328.80814 973.878768,333.038279 970.500359,335.482401 C967.12195,337.926519 959.426802,340.464603 947.414683,343.09673 C946.288546,347.98497 944.974741,354.283182 943.473227,361.991554 C941.971712,369.699929 940.657905,377.596194 939.53177,385.680586 C938.405633,393.764982 937.4672,401.285231 936.716443,408.241572 C935.965686,415.19791 935.777998,420.180075 936.153379,423.188222 C943.660954,418.676003 949.760764,415.103884 954.452998,412.471754 C959.145234,409.839627 963.93124,407.395546 968.811163,405.139436 C967.685026,397.99509 966.558909,383.330596 965.432771,361.145519 C965.057394,353.625153 965.432766,350.335042 966.558903,351.275089 C967.685038,352.215135 969.937278,359.26537 973.315684,372.426011 C975.567959,382.202484 978.195571,389.064717 981.1986,393.012907 C984.201629,396.961098 988.330732,399.499185 993.586036,400.627239 C995.838307,401.003257 997.62133,402.789318 998.935154,405.985474 C1000.24898,409.181627 1001.18741,412.753749 1001.75048,416.701939 C1002.31355,420.650132 1002.40739,424.50426 1002.03201,428.264442 C1001.65664,432.024627 1000.53052,434.468708 998.653621,435.596763 Z M1075.2305,609.88036 C1069.97519,619.280816 1065.47072,624.356988 1061.71693,625.109022 C1057.96314,625.86106 1054.02173,624.733022 1049.89256,621.724875 C1038.25582,612.700436 1024.74239,604.898175 1009.35186,598.317854 C993.961333,591.737534 977.444919,585.815336 959.802119,580.55108 C953.796058,578.67099 950.511544,576.696923 949.948477,574.628822 C949.38541,572.560721 951.919178,571.714695 957.549859,572.090712 C962.80516,572.46673 968.341914,572.46673 974.160282,572.090712 C979.978653,571.714695 985.609248,571.056672 991.052242,570.116626 C996.495232,569.17658 1001.18739,568.142545 1005.12887,567.01449 C1009.07035,565.886435 1011.97949,564.758397 1013.85638,563.630342 C1020.6132,559.118123 1024.36693,555.357998 1025.11769,552.349851 C1025.86845,549.341707 1024.36695,544.453541 1020.61317,537.685212 C1017.98552,533.172993 1015.63944,529.412868 1013.57485,526.404721 C1011.51027,523.396573 1009.72725,521.704518 1008.22573,521.328501 C1003.72119,520.200446 1002.12585,518.696394 1003.43968,516.816301 C1004.7535,514.936212 1009.53951,513.99618 1017.79784,513.99618 C1027.18231,513.99618 1036.28511,517.474296 1045.10651,524.430634 C1053.92791,531.386972 1061.34152,539.941259 1067.34759,550.093753 C1073.35364,559.870229 1077.29506,570.116572 1079.17195,580.833094 C1081.04885,591.549614 1079.73504,601.231939 1075.2305,609.88036 Z M906.310918,549.52973 C896.551071,549.153709 885.852939,553.853869 874.216201,563.630342 C862.579459,573.406819 851.318266,587.13128 840.432284,604.804138 C844.56145,607.436265 849.535143,609.880349 855.353514,612.136459 C861.171882,614.392568 869.523933,616.272629 880.409917,617.776704 C890.169764,619.280776 896.92648,618.246742 900.680266,614.674568 C904.434055,611.102395 905.74786,604.992189 904.621722,596.343768 C903.870965,589.951459 903.777122,582.713215 904.340192,574.628822 C904.903259,566.54443 905.560161,558.178148 906.310918,549.52973 Z" id="味"></path>
        </g>
    </g>
</svg>